<?xml version="1.0" encoding="utf-8"?>
<!-- Generator: Adobe Illustrator 19.0.0, SVG Export Plug-In . SVG Version: 6.00 Build 0)  -->
<svg version="1.1" id="Calque_1" xmlns="http://www.w3.org/2000/svg" xmlns:xlink="http://www.w3.org/1999/xlink" x="0px" y="0px"
	 viewBox="-326.1 185.7 550 762.1" style="enable-background:new -326.1 185.7 550 762.1;" xml:space="preserve">
<style type="text/css">
	.st0{fill:#FFFFFF;}
</style>
<polygon class="st0" points="134.7,335.7 48.3,185.8 -28.9,185.8 -28.9,208.7 -28.9,231.7 21.8,231.7 81.7,335.7 -28.9,335.7 
	-28.9,381.6 82.2,381.6 21.6,486.5 -28.9,486.4 -28.9,509.4 -28.9,532.3 48.1,532.4 135.3,381.6 148.2,359.2 "/>
<polygon class="st0" points="-151.8,185.7 -238.5,335.7 -251.9,358.9 -238.8,381.6 -152,532.2 -74.8,532.3 -74.8,509.4 -74.8,486.4 
	-125.5,486.4 -185.9,381.6 -74.8,381.6 -74.8,335.7 -185.5,335.7 -125.3,231.6 -74.8,231.6 -74.8,208.7 -74.8,185.7 "/>
<g>
	<path class="st0" d="M-252.4,588.6c3,4.2,4.5,9.3,4.5,15.1c0,6.1-1.5,10.9-4.6,14.6c-1.7,2.1-4.2,3.9-7.6,5.6
		c5.1,1.8,8.9,4.8,11.4,8.7c2.6,4,3.9,8.8,3.9,14.5c0,5.9-1.5,11.1-4.4,15.8c-1.9,3.1-4.2,5.7-7,7.8c-3.2,2.4-6.9,4.1-11.2,5
		c-4.3,0.9-9,1.3-14,1.3h-44.7v-99.1h48.1C-266,578.2-257.4,581.8-252.4,588.6z M-306.2,595.3v21.9h24.1c4.3,0,7.8-0.8,10.5-2.5
		c2.7-1.6,4-4.5,4-8.7c0-4.6-1.8-7.7-5.3-9.1c-3.1-1-7-1.5-11.7-1.5h-21.6V595.3z M-306.2,633.5v26.4h24.1c4.3,0,7.6-0.6,10-1.7
		c4.3-2.2,6.5-6.3,6.5-12.4c0-5.2-2.1-8.7-6.3-10.6c-2.3-1.1-5.6-1.6-9.9-1.7H-306.2z"/>
	<path class="st0" d="M-153.5,595.6H-206v21h48.1v17.2H-206v25.5h54.9v17.8h-75.1V578h72.7V595.6z"/>
	<path class="st0" d="M-61.7,595.6h-52.4v21H-66v17.2h-48.1v25.5h54.9v17.8h-75.1V578h72.7L-61.7,595.6L-61.7,595.6z"/>
	<path class="st0" d="M-42.8,578.1h20.4v40.8l38.3-40.8h26.8L2,618.9l42.8,58.3H18.2l-30.5-43.3l-10,10.1v33.1h-20.4L-42.8,578.1
		L-42.8,578.1z"/>
	<path class="st0" d="M129.6,595.6H77.2v21h48.1v17.2H77.2v25.5H132v17.8H56.9V578h72.7V595.6z"/>
	<path class="st0" d="M221.4,595.6H169v21h48.1v17.2H169v25.5h54.9v17.8h-75.1V578h72.7v17.6H221.4z"/>
</g>
<g>
	<path class="st0" d="M-324.4,708.4h30.5v210.4h100.8v25.6h-131.3V708.4z"/>
	<path class="st0" d="M-126,727.3c0.4,10.5-7.4,18.9-19.6,18.9c-10.9,0-18.6-8.4-18.6-18.9c0-10.8,8.1-19.2,19.3-19.2
		C-133.3,708-126,716.4-126,727.3z M-160.3,944.3V774.9h30.8v169.4H-160.3z"/>
	<path class="st0" d="M-66.5,774.9l33.3,95.2c5.6,15.4,10.2,29.4,13.7,43.4h1c3.9-14,8.8-28,14.4-43.4l32.9-95.2h32.2L-5.6,944.3
		H-35l-64.4-169.4H-66.5z"/>
	<path class="st0" d="M103.6,865.2c0.7,41.7,27.3,58.8,58.1,58.8c22.1,0,35.4-3.8,46.9-8.8l5.3,22.1c-10.9,4.9-29.4,10.5-56.4,10.5
		c-52.2,0-83.3-34.3-83.3-85.4s30.1-91.4,79.5-91.4c55.3,0,70,48.7,70,79.8c0,6.3-0.7,11.2-1,14.3H103.6z M193.9,843.1
		c0.4-19.6-8-50.1-42.7-50.1c-31.2,0-44.8,28.7-47.3,50.1H193.9z"/>
</g>
</svg>
