<?xml version="1.0" encoding="utf-8"?>
<!-- Generator: Adobe Illustrator 19.0.0, SVG Export Plug-In . SVG Version: 6.00 Build 0)  -->
<svg version="1.1" id="Calque_1" xmlns="http://www.w3.org/2000/svg" xmlns:xlink="http://www.w3.org/1999/xlink" x="0px" y="0px"
	 viewBox="-901.1 623.2 550 369.9" style="enable-background:new -901.1 623.2 550 369.9;" xml:space="preserve">
<style type="text/css">
	.st0{fill:#3E60FE;}
</style>
<g>
	<path d="M-827.4,633.9c3,4.2,4.5,9.3,4.5,15.1c0,6.1-1.5,10.9-4.6,14.6c-1.7,2.1-4.2,3.9-7.6,5.6c5.1,1.8,8.9,4.8,11.4,8.7
		c2.6,4,3.9,8.8,3.9,14.5c0,5.9-1.5,11.1-4.4,15.8c-1.9,3.1-4.2,5.7-7,7.8c-3.2,2.4-6.9,4.1-11.2,5c-4.3,0.9-9,1.3-14,1.3h-44.7
		v-99.1h48.1C-841,623.5-832.4,627.1-827.4,633.9z M-881.2,640.6v21.9h24.1c4.3,0,7.8-0.8,10.5-2.5c2.7-1.6,4-4.5,4-8.7
		c0-4.6-1.8-7.7-5.3-9.1c-3.1-1-7-1.5-11.7-1.5h-21.6V640.6z M-881.2,678.8v26.4h24.1c4.3,0,7.6-0.6,10-1.7
		c4.3-2.2,6.5-6.3,6.5-12.4c0-5.2-2.1-8.7-6.3-10.6c-2.3-1.1-5.6-1.6-9.9-1.7H-881.2z"/>
	<path d="M-728.5,640.9H-781v21h48.1v17.2H-781v25.5h54.9v17.8h-75.1v-99.1h72.7V640.9L-728.5,640.9z"/>
	<path d="M-636.7,640.9h-52.4v21h48.1v17.2h-48.1v25.5h54.9v17.8h-75.1v-99.1h72.7L-636.7,640.9L-636.7,640.9z"/>
	<path d="M-617.8,623.4h20.4v40.8l38.3-40.8h26.8l-40.7,40.8l42.8,58.3h-26.6l-30.5-43.3l-10,10.1v33.1h-20.4L-617.8,623.4
		L-617.8,623.4z"/>
	<path d="M-445.4,640.9h-52.4v21h48.1v17.2h-48.1v25.5h54.8v17.8h-75.1v-99.1h72.7V640.9z"/>
	<path d="M-353.6,640.9H-406v21h48.1v17.2H-406v25.5h54.9v17.8h-75.1v-99.1h72.7v17.6H-353.6z"/>
</g>
<g>
	<path class="st0" d="M-899.4,753.7h30.5v210.4h100.8v25.6h-131.3V753.7z"/>
	<path class="st0" d="M-701,772.6c0.4,10.5-7.4,18.9-19.6,18.9c-10.9,0-18.6-8.4-18.6-18.9c0-10.8,8.1-19.2,19.3-19.2
		C-708.3,753.3-701,761.7-701,772.6z M-735.3,989.6V820.2h30.8v169.4L-735.3,989.6L-735.3,989.6z"/>
	<path class="st0" d="M-641.5,820.2l33.3,95.2c5.6,15.4,10.2,29.4,13.7,43.4h1c3.9-14,8.8-28,14.4-43.4l32.9-95.2h32.2l-66.6,169.4
		H-610l-64.4-169.4H-641.5z"/>
	<path class="st0" d="M-471.4,910.5c0.7,41.7,27.3,58.8,58.1,58.8c22.1,0,35.4-3.8,46.9-8.8l5.3,22.1c-10.9,4.9-29.4,10.5-56.4,10.5
		c-52.2,0-83.3-34.3-83.3-85.4s30.1-91.4,79.5-91.4c55.3,0,70,48.7,70,79.8c0,6.3-0.7,11.2-1,14.3h-119.1V910.5z M-381.1,888.4
		c0.4-19.6-8-50.1-42.7-50.1c-31.2,0-44.8,28.7-47.3,50.1H-381.1z"/>
</g>
</svg>
